<?xml version="1.0" standalone="no"?>
<!DOCTYPE svg PUBLIC "-//W3C//DTD SVG 20010904//EN"
 "http://www.w3.org/TR/2001/REC-SVG-20010904/DTD/svg10.dtd">
<svg version="1.0" xmlns="http://www.w3.org/2000/svg"
 width="1024.000000pt" height="1024.000000pt" viewBox="0 0 1024.000000 1024.000000"
 preserveAspectRatio="xMidYMid meet">

<g transform="translate(0.000000,1024.000000) scale(0.100000,-0.100000)"
fill="#000000" stroke="none">
<path d="M2132 9127 c-20 -21 -22 -33 -22 -135 0 -99 2 -114 20 -132 23 -23
58 -26 86 -6 16 12 20 32 26 128 6 99 5 116 -11 138 -25 35 -70 38 -99 7z"/>
<path d="M1380 8780 c-38 -38 -27 -71 56 -159 83 -89 113 -104 145 -75 53 48
49 62 -54 177 -76 84 -107 97 -147 57z"/>
<path d="M2825 8723 c-90 -94 -104 -122 -81 -158 13 -19 25 -25 52 -25 32 0
47 10 115 76 92 90 107 121 78 159 -15 18 -30 25 -55 25 -29 0 -44 -10 -109
-77z"/>
<path d="M2071 8710 c-136 -29 -245 -83 -330 -164 -254 -242 -292 -605 -90
-876 32 -43 83 -97 113 -120 l56 -41 2 -112 c1 -62 0 -149 -1 -195 -3 -72 0
-89 23 -135 33 -69 50 -83 113 -100 30 -7 62 -23 76 -39 41 -45 86 -62 158
-61 79 0 153 31 177 74 12 20 26 28 55 32 48 7 81 36 115 102 24 48 25 57 26
241 l1 191 76 81 c154 163 194 258 193 457 0 143 -13 203 -66 312 -73 150
-228 284 -388 334 -74 24 -239 34 -309 19z m224 -135 c242 -51 387 -228 410
-502 17 -192 -52 -339 -207 -445 -59 -40 -78 -63 -78 -96 0 -17 -5 -18 -62
-10 -35 5 -75 6 -90 2 l-28 -6 0 146 0 146 33 0 c63 0 127 30 187 89 74 72
103 129 102 199 -1 121 -96 170 -237 122 -33 -11 -85 -20 -119 -20 -34 0 -67
-4 -74 -8 -23 -15 -33 -75 -26 -170 l7 -94 -61 31 c-62 32 -98 67 -109 108 -8
33 24 75 68 89 24 8 35 19 37 35 5 32 -23 49 -83 49 -59 0 -115 -32 -140 -80
-62 -119 83 -326 241 -346 l55 -6 -3 -142 -3 -141 -82 -3 c-79 -3 -83 -2 -83
18 0 35 -17 57 -74 95 -151 100 -230 252 -230 440 1 136 47 265 128 354 58 64
177 123 311 154 42 10 143 6 210 -8z m100 -429 c60 -39 36 -117 -55 -178 -93
-62 -94 -62 -86 40 9 118 17 145 47 152 35 9 66 4 94 -14z m37 -785 c-1 -19
-5 -37 -8 -40 -3 -4 -109 -8 -235 -9 l-229 -4 0 30 c0 17 -3 38 -6 46 -6 15
17 16 237 14 l244 -3 -3 -34z m-3 -200 c12 -8 12 -14 2 -40 -10 -24 -24 -34
-65 -47 -28 -9 -71 -27 -96 -40 -56 -30 -79 -30 -149 1 -31 13 -75 29 -97 35
-48 12 -61 25 -70 68 l-6 32 233 0 c129 0 240 -4 248 -9z"/>
<path d="M1157 8150 c-34 -27 -34 -50 -2 -88 22 -26 34 -31 94 -37 109 -11
161 14 161 78 0 46 -33 62 -134 65 -81 3 -94 1 -119 -18z"/>
<path d="M3010 8160 c-60 -14 -79 -69 -37 -108 48 -46 190 -37 224 14 47 72
-57 124 -187 94z"/>
<path d="M7769 7966 c-115 -32 -207 -92 -277 -181 -86 -109 -116 -207 -110
-358 3 -96 6 -109 40 -178 67 -133 175 -230 302 -272 57 -19 96 -20 621 -24
308 -2 579 -1 602 2 75 11 134 98 104 154 -22 40 -65 53 -170 49 -53 -1 -158
-2 -233 0 l-138 2 0 108 c0 112 -8 184 -19 178 -4 -3 -8 18 -9 45 -1 30 2 49
9 49 6 0 8 7 5 16 -3 8 -2 13 3 10 10 -6 34 42 26 53 -7 12 -415 20 -447 9
-27 -10 -39 -28 -17 -28 5 0 7 -5 4 -10 -4 -6 -1 -9 7 -8 10 2 14 -36 16 -192
1 -107 4 -201 7 -208 2 -7 5 -15 5 -18 0 -4 -55 -6 -123 -5 -108 1 -128 4
-174 27 -64 31 -94 66 -124 141 -29 74 -38 213 -16 264 21 51 95 127 148 155
l48 24 568 2 568 2 27 25 c59 53 43 126 -35 162 -40 18 -73 19 -607 18 -424
-1 -576 -4 -611 -13z m557 -643 c16 -21 47 -56 70 -78 23 -22 49 -53 59 -68
l18 -28 -54 7 c-30 5 -107 8 -171 8 -65 1 -118 2 -118 4 0 1 25 29 55 62 51
55 60 71 56 93 -1 5 2 6 7 3 5 -3 15 4 22 15 19 26 23 25 56 -18z"/>
<path d="M4072 7932 l-30 -29 2 -414 c3 -449 4 -461 58 -487 35 -17 72 -2 98
40 19 32 20 51 20 451 l0 418 -26 24 c-37 34 -83 33 -122 -3z"/>
<path d="M4433 7949 c-62 -18 -81 -111 -32 -160 16 -16 33 -19 114 -19 l95 0
2 -32 c1 -18 1 -46 0 -63 -1 -16 -2 -160 -2 -318 -1 -322 0 -331 64 -342 42
-8 71 6 91 45 13 24 15 85 15 370 l0 340 84 0 c65 0 89 4 105 18 28 22 38 85
20 118 -26 50 -49 54 -296 53 -125 0 -243 -5 -260 -10z"/>
<path d="M5148 7945 c-36 -20 -48 -44 -48 -99 0 -37 5 -48 28 -66 24 -20 35
-22 110 -16 l82 6 0 -352 c0 -381 2 -394 53 -412 39 -14 77 3 101 44 20 33 21
53 24 378 l3 342 94 0 c92 0 94 0 119 31 35 41 33 72 -8 117 l-34 37 -249 2
c-205 2 -253 0 -275 -12z"/>
<path d="M5917 7931 c-24 -29 -24 -29 -32 -344 -10 -435 1 -556 52 -571 10 -2
109 -1 221 2 201 7 203 7 223 32 45 57 52 120 17 144 -18 13 -54 16 -180 16
l-157 0 6 348 6 347 -26 28 c-37 39 -96 38 -130 -2z"/>
<path d="M3379 7937 c-37 -29 -39 -47 -39 -461 l0 -406 28 -30 27 -30 218 -1
c244 -1 247 0 268 70 13 45 0 83 -36 107 -22 15 -46 16 -175 12 l-150 -6 0
358 0 359 -26 20 c-30 23 -90 28 -115 8z"/>
<path d="M6576 7927 c-22 -22 -23 -32 -29 -221 -4 -110 -7 -286 -7 -393 0
-303 -4 -299 283 -295 221 3 247 9 266 63 16 48 14 67 -14 94 -24 25 -27 25
-195 25 l-170 0 0 105 0 105 148 0 c142 0 149 1 170 23 44 47 18 136 -40 138
-13 0 -79 1 -148 2 l-125 2 4 100 c1 55 4 102 6 103 2 2 73 3 157 3 85 -1 162
1 172 5 21 8 46 55 46 89 0 14 -11 37 -25 50 l-24 25 -226 0 c-222 0 -226 0
-249 -23z"/>
<path d="M1439 7597 c-76 -72 -92 -97 -83 -132 7 -28 31 -45 65 -45 20 0 148
110 172 148 21 33 -28 93 -75 92 -7 0 -43 -29 -79 -63z"/>
<path d="M2825 7635 c-42 -41 -34 -70 43 -147 60 -59 73 -68 105 -68 41 0 57
19 57 70 0 26 -13 45 -69 101 -76 76 -98 83 -136 44z"/>
<path d="M6775 6640 c-40 -10 -85 -28 -85 -35 0 -2 12 0 28 6 32 13 49 16 122
18 41 2 50 5 35 11 -24 10 -60 11 -100 0z"/>
<path d="M9046 6451 c-4 -7 -5 -15 -2 -18 9 -9 19 4 14 18 -4 11 -6 11 -12 0z"/>
<path d="M9045 6368 c4 -9 2 -26 -5 -37 -6 -12 -7 -21 -1 -21 14 0 23 52 11
64 -8 8 -9 7 -5 -6z"/>
<path d="M7680 6304 c0 -5 7 -18 15 -28 8 -11 15 -16 15 -10 0 5 -7 18 -15 28
-8 11 -15 16 -15 10z"/>
<path d="M9000 6296 c0 -2 8 -10 18 -17 15 -13 16 -12 3 4 -13 16 -21 21 -21
13z"/>
<path d="M4370 6251 c0 -6 4 -13 10 -16 6 -3 7 1 4 9 -7 18 -14 21 -14 7z"/>
<path d="M3573 6110 c0 -30 2 -43 4 -27 2 15 2 39 0 55 -2 15 -4 2 -4 -28z"/>
<path d="M1961 6117 c-8 -10 -7 -14 2 -14 8 0 14 6 14 14 0 7 -1 13 -2 13 -2
0 -8 -6 -14 -13z"/>
<path d="M4413 6085 c0 -27 2 -38 4 -22 2 15 2 37 0 50 -2 12 -4 0 -4 -28z"/>
<path d="M4421 6014 c0 -11 3 -14 6 -6 3 7 2 16 -1 19 -3 4 -6 -2 -5 -13z"/>
<path d="M8564 5685 c0 -165 2 -234 3 -153 2 81 2 216 0 300 -1 84 -3 18 -3
-147z"/>
<path d="M4403 5874 c-6 -25 -7 -42 -3 -37 9 9 25 83 18 83 -3 0 -9 -21 -15
-46z"/>
<path d="M3571 5884 c0 -11 3 -14 6 -6 3 7 2 16 -1 19 -3 4 -6 -2 -5 -13z"/>
<path d="M8142 5865 c0 -16 2 -22 5 -12 2 9 2 23 0 30 -3 6 -5 -1 -5 -18z"/>
<path d="M1772 5800 c0 -14 2 -19 5 -12 2 6 2 18 0 25 -3 6 -5 1 -5 -13z"/>
<path d="M2213 5799 c-50 -32 -77 -82 -70 -131 11 -80 86 -128 200 -128 85 0
86 0 88 -100 1 -30 4 -44 6 -31 6 31 31 69 53 81 9 5 33 5 55 0 25 -6 46 -5
58 2 11 5 17 6 14 1 -6 -9 68 -8 136 2 20 3 53 7 72 10 20 2 40 7 44 10 5 3
15 37 21 76 15 90 4 131 -46 179 -23 22 -35 28 -31 17 4 -10 3 -15 -2 -12 -5
3 -12 1 -16 -5 -3 -5 -14 -10 -24 -10 -9 0 -37 -10 -61 -21 -38 -18 -56 -21
-123 -16 -43 3 -88 11 -100 19 -32 21 -130 59 -155 61 -12 1 -22 5 -22 9 0 16
-66 7 -97 -13z"/>
<path d="M1763 5705 c0 -22 2 -30 4 -17 2 12 2 30 0 40 -3 9 -5 -1 -4 -23z"/>
<path d="M8845 5645 c-59 -59 -11 -184 71 -185 92 -1 111 150 24 195 -41 21
-67 19 -95 -10z"/>
<path d="M1771 5624 c0 -11 3 -14 6 -6 3 7 2 16 -1 19 -3 4 -6 -2 -5 -13z"/>
<path d="M6918 5603 c6 -2 18 -2 25 0 6 3 1 5 -13 5 -14 0 -19 -2 -12 -5z"/>
<path d="M1800 5508 c0 -9 5 -20 10 -23 13 -8 13 5 0 25 -8 13 -10 13 -10 -2z"/>
<path d="M4206 5423 c3 -10 14 -29 25 -43 19 -24 19 -24 -1 18 -21 44 -31 54
-24 25z"/>
<path d="M1840 5426 c0 -2 8 -10 18 -17 15 -13 16 -12 3 4 -13 16 -21 21 -21
13z"/>
<path d="M8563 5325 c0 -33 2 -45 4 -27 2 18 2 45 0 60 -2 15 -4 0 -4 -33z"/>
<path d="M4315 5236 c10 -14 19 -26 22 -26 7 0 -17 39 -28 46 -6 3 -3 -5 6
-20z"/>
<path d="M4355 5173 c34 -53 45 -67 45 -60 0 10 -51 87 -57 87 -3 0 3 -12 12
-27z"/>
<path d="M8562 5083 c-1 -61 -5 -120 -8 -130 -5 -17 -5 -17 6 -1 7 11 9 59 7
130 l-3 113 -2 -112z"/>
<path d="M8836 5139 c-40 -48 -38 -101 5 -141 44 -42 100 -39 145 6 25 25 34
43 34 66 0 23 -9 42 -34 66 -29 29 -41 34 -79 34 -38 0 -49 -5 -71 -31z"/>
<path d="M1540 5121 c0 -6 4 -13 10 -16 6 -3 7 1 4 9 -7 18 -14 21 -14 7z"/>
<path d="M2801 5068 c-18 -28 -26 -47 -19 -40 14 11 62 92 55 92 -2 0 -19 -23
-36 -52z"/>
<path d="M2735 5010 c-3 -5 -4 -10 -1 -10 3 0 -8 -13 -25 -29 -19 -19 -37 -28
-47 -24 -9 4 -14 3 -10 -2 4 -4 3 -15 -4 -22 -18 -22 56 24 78 48 10 11 19 26
20 34 3 17 -2 19 -11 5z"/>
<path d="M7190 4994 c0 -6 7 -19 16 -30 14 -18 14 -18 3 6 -14 31 -19 36 -19
24z"/>
<path d="M6070 4935 c1 -6 7 -21 16 -35 l15 -25 -7 25 c-7 26 -24 52 -24 35z"/>
<path d="M7220 4916 c0 -2 8 -10 18 -17 15 -13 16 -12 3 4 -13 16 -21 21 -21
13z"/>
<path d="M3180 4905 c0 -4 9 -20 21 -36 44 -62 147 -87 224 -55 49 21 43 26
-12 12 -27 -6 -68 -9 -93 -6 -37 4 -45 8 -43 25 1 20 1 20 -13 1 -13 -18 -19
-15 -15 7 1 5 -3 6 -8 3 -5 -3 -21 8 -35 25 -14 17 -26 28 -26 24z"/>
<path d="M3494 4868 l-29 -33 33 29 c30 28 37 36 29 36 -2 0 -16 -15 -33 -32z"/>
<path d="M1928 4833 c7 -3 16 -2 19 1 4 3 -2 6 -13 5 -11 0 -14 -3 -6 -6z"/>
<path d="M1968 4823 c7 -3 16 -2 19 1 4 3 -2 6 -13 5 -11 0 -14 -3 -6 -6z"/>
<path d="M4117 4819 c7 -7 15 -10 18 -7 3 3 -2 9 -12 12 -14 6 -15 5 -6 -5z"/>
<path d="M4847 4820 c6 -7 36 -14 65 -16 l53 -3 -51 8 c-29 5 -58 12 -65 16
-11 6 -11 5 -2 -5z"/>
<path d="M2008 4813 c7 -3 16 -2 19 1 4 3 -2 6 -13 5 -11 0 -14 -3 -6 -6z"/>
<path d="M2058 4803 c6 -2 18 -2 25 0 6 3 1 5 -13 5 -14 0 -19 -2 -12 -5z"/>
<path d="M2348 4803 c7 -3 16 -2 19 1 4 3 -2 6 -13 5 -11 0 -14 -3 -6 -6z"/>
<path d="M4158 4803 c7 -3 16 -2 19 1 4 3 -2 6 -13 5 -11 0 -14 -3 -6 -6z"/>
<path d="M4218 4803 c7 -3 16 -2 19 1 4 3 -2 6 -13 5 -11 0 -14 -3 -6 -6z"/>
<path d="M3673 4534 c-18 -9 -52 -38 -77 -64 -96 -103 -86 -220 28 -313 43
-36 47 -37 127 -37 63 0 93 5 125 21 99 47 132 159 78 259 -68 124 -186 181
-281 134z m162 -129 c46 -45 20 -156 -40 -171 -78 -19 -135 30 -135 117 0 63
17 74 113 78 28 1 44 -5 62 -24z"/>
<path d="M8294 4530 c-61 -12 -197 -67 -244 -99 -103 -69 -194 -184 -230 -292
-31 -90 -38 -233 -16 -319 23 -88 55 -155 105 -218 81 -102 145 -133 385 -188
177 -40 225 -64 256 -130 58 -119 -32 -229 -189 -228 -90 1 -147 29 -218 110
-65 73 -97 89 -178 88 -73 -1 -126 -26 -179 -84 -38 -42 -38 -43 -34 -114 3
-65 7 -79 46 -138 116 -178 290 -273 523 -285 136 -7 228 12 351 74 130 65
233 167 287 284 47 103 61 158 61 244 0 143 -52 267 -155 370 -95 95 -159 127
-363 179 -251 64 -282 84 -282 182 0 92 67 148 177 147 83 -1 140 -30 205
-104 59 -66 104 -89 178 -89 61 0 88 10 134 51 77 67 99 175 54 267 -44 92
-181 206 -307 255 -100 40 -266 57 -367 37z"/>
<path d="M1515 4498 c-36 -19 -86 -72 -108 -113 -22 -40 -22 -43 -25 -800 -3
-852 -7 -806 71 -884 92 -94 197 -95 278 -3 61 69 61 72 66 482 2 206 6 377 9
379 15 15 52 -28 270 -317 93 -123 129 -152 187 -152 86 0 134 45 321 293 111
149 145 188 147 171 1 -5 2 -178 3 -384 l1 -375 28 -48 c52 -88 150 -134 230
-108 46 16 112 73 143 126 l25 44 -1 761 c0 491 -4 770 -11 788 -33 89 -110
147 -194 146 -62 -1 -100 -20 -151 -76 -62 -68 -458 -626 -496 -700 -11 -21
-23 -38 -27 -38 -3 0 -17 19 -30 43 -40 70 -261 386 -418 598 -82 110 -110
141 -145 158 -49 23 -139 28 -173 9z"/>
<path d="M4504 4496 c-60 -19 -101 -54 -129 -110 -21 -43 -25 -64 -25 -144 0
-94 0 -95 40 -154 22 -33 37 -65 33 -72 -3 -6 -2 -8 2 -3 5 4 17 0 27 -10 20
-18 25 -38 6 -27 -7 4 -8 3 -4 -5 4 -6 11 -9 16 -6 10 6 61 -61 52 -70 -4 -3
-1 -5 5 -3 16 4 134 -143 128 -159 -2 -7 2 -13 10 -13 7 0 16 -9 20 -19 3 -11
21 -39 40 -63 19 -23 35 -52 35 -63 0 -14 3 -16 8 -7 13 19 50 -14 144 -132
46 -56 108 -133 140 -171 129 -160 268 -335 327 -415 116 -155 172 -202 258
-216 54 -8 134 27 173 76 68 86 64 35 65 875 l0 760 -23 37 c-32 51 -93 103
-137 118 -45 15 -121 8 -171 -16 -21 -10 -49 -38 -70 -68 l-34 -51 0 -400 c0
-220 -4 -406 -8 -413 -9 -14 -22 -1 -89 88 -23 30 -83 105 -133 165 -50 61
-122 153 -160 205 -38 52 -89 120 -115 150 -25 30 -88 108 -140 172 -99 121
-127 147 -184 166 -41 15 -55 14 -107 -2z"/>
<path d="M6356 4493 c-39 -10 -96 -54 -111 -85 -11 -24 -12 -28 -2 -16 8 10
17 14 21 10 4 -4 6 0 4 8 -1 8 3 14 10 12 7 -1 15 5 18 13 3 8 10 12 15 9 5
-3 8 0 7 8 -2 10 13 13 60 14 34 1 65 4 69 7 3 4 12 -1 20 -11 14 -16 14 -16
9 1 -3 9 -2 17 3 17 5 0 12 -10 15 -22 l7 -23 9 23 c10 24 35 20 26 -4 -3 -8
1 -14 10 -14 11 0 14 6 8 23 -7 22 -6 22 14 4 16 -15 25 -16 40 -8 26 14 180
14 192 1 3 -4 16 -13 29 -22 19 -13 28 -14 50 -5 14 6 29 16 33 22 5 6 11 6
19 -2 8 -8 3 -13 -20 -18 -17 -3 -34 -11 -37 -17 -9 -14 14 -27 37 -21 16 4
19 0 19 -26 0 -19 5 -31 13 -31 9 0 12 9 9 29 -4 29 18 48 40 34 6 -3 8 -1 5
4 -4 6 0 14 9 17 8 3 12 2 9 -4 -8 -12 5 -13 24 -1 17 11 11 15 -79 41 -51 15
-119 25 -215 31 -152 9 -358 10 -389 2z m620 -70 c-2 -2 -23 -6 -47 -7 -43 -4
-43 -4 -11 7 17 5 32 14 32 20 0 5 7 4 15 -3 9 -7 14 -15 11 -17z"/>
<path d="M6368 4453 c7 -3 16 -2 19 1 4 3 -2 6 -13 5 -11 0 -14 -3 -6 -6z"/>
<path d="M6440 4444 c0 -8 5 -12 10 -9 6 3 10 10 10 16 0 5 -4 9 -10 9 -5 0
-10 -7 -10 -16z"/>
<path d="M6670 4453 c8 -3 21 -10 28 -16 8 -7 12 -5 12 7 0 11 -8 16 -27 15
-16 0 -22 -3 -13 -6z"/>
<path d="M6630 4440 c-9 -6 -10 -10 -3 -10 6 0 15 5 18 10 8 12 4 12 -15 0z"/>
<path d="M6785 4440 c3 -5 14 -10 23 -10 15 0 15 2 2 10 -20 13 -33 13 -25 0z"/>
<path d="M7060 4415 c0 -2 14 -11 30 -20 17 -9 30 -12 30 -7 0 5 -11 14 -25
20 -28 13 -35 14 -35 7z"/>
<path d="M6810 4396 c0 -24 17 -28 23 -6 3 13 0 20 -9 20 -8 0 -14 -6 -14 -14z"/>
<path d="M6785 4389 c-4 -6 -5 -12 -2 -15 2 -3 7 2 10 11 7 17 1 20 -8 4z"/>
<path d="M6730 4380 c0 -5 5 -10 11 -10 5 0 7 5 4 10 -3 6 -8 10 -11 10 -2 0
-4 -4 -4 -10z"/>
<path d="M6870 4380 c20 -13 33 -13 25 0 -3 6 -14 10 -23 10 -15 0 -15 -2 -2
-10z"/>
<path d="M6516 4333 c-6 -14 -5 -15 5 -6 7 7 10 15 7 18 -3 3 -9 -2 -12 -12z"/>
<path d="M6765 4340 c-3 -5 1 -10 10 -10 9 0 13 5 10 10 -3 6 -8 10 -10 10 -2
0 -7 -4 -10 -10z"/>
<path d="M7170 4341 c0 -6 4 -13 10 -16 6 -3 7 1 4 9 -7 18 -14 21 -14 7z"/>
<path d="M7249 4291 c29 -28 56 -51 58 -51 10 0 -11 21 -60 60 l-52 42 54 -51z"/>
<path d="M6676 4232 c-3 -5 1 -9 9 -9 8 0 12 4 9 9 -3 4 -7 8 -9 8 -2 0 -6 -4
-9 -8z"/>
<path d="M7336 4200 c10 -16 24 -32 31 -35 8 -2 2 11 -13 30 -32 43 -41 45
-18 5z"/>
<path d="M7390 4133 c0 -5 10 -18 23 -29 l22 -19 -20 25 c-11 14 -21 27 -22
29 -2 2 -3 0 -3 -6z"/>
<path d="M7126 4025 c4 -8 11 -15 16 -15 6 0 5 6 -2 15 -7 8 -14 15 -16 15 -2
0 -1 -7 2 -15z"/>
<path d="M6603 3960 c0 -25 2 -35 4 -22 2 12 2 32 0 45 -2 12 -4 2 -4 -23z"/>
<path d="M6990 3945 c0 -7 30 -13 34 -7 3 4 -4 9 -15 9 -10 1 -19 0 -19 -2z"/>
<path d="M7040 3916 c0 -2 8 -10 18 -17 15 -13 16 -12 3 4 -13 16 -21 21 -21
13z"/>
<path d="M7240 3895 c0 -14 2 -25 4 -25 2 0 6 11 8 25 3 14 1 25 -3 25 -5 0
-9 -11 -9 -25z"/>
<path d="M6602 3890 c0 -14 2 -19 5 -12 2 6 2 18 0 25 -3 6 -5 1 -5 -13z"/>
<path d="M7062 3861 c7 -9 13 -18 15 -20 1 -2 1 5 0 16 0 11 -7 20 -14 20 -10
0 -10 -4 -1 -16z"/>
<path d="M6614 3650 c0 -91 2 -128 3 -82 2 45 2 119 0 165 -1 45 -3 8 -3 -83z"/>
<path d="M7552 3720 c0 -14 2 -19 5 -12 2 6 2 18 0 25 -3 6 -5 1 -5 -13z"/>
<path d="M7131 3694 c0 -11 3 -14 6 -6 3 7 2 16 -1 19 -3 4 -6 -2 -5 -13z"/>
<path d="M6193 3660 c0 -25 2 -35 4 -22 2 12 2 32 0 45 -2 12 -4 2 -4 -23z"/>
<path d="M7551 3674 c0 -11 3 -14 6 -6 3 7 2 16 -1 19 -3 4 -6 -2 -5 -13z"/>
<path d="M6326 3654 c-9 -24 -7 -27 9 -10 17 17 19 26 6 26 -5 0 -12 -7 -15
-16z"/>
<path d="M6370 3660 c0 -5 5 -10 10 -10 6 0 10 5 10 10 0 6 -4 10 -10 10 -5 0
-10 -4 -10 -10z"/>
<path d="M6261 3634 c0 -11 3 -14 6 -6 3 7 2 16 -1 19 -3 4 -6 -2 -5 -13z"/>
<path d="M7563 3535 c0 -38 2 -53 4 -32 2 20 2 52 0 70 -2 17 -4 1 -4 -38z"/>
<path d="M4540 3566 c0 -2 7 -6 15 -10 8 -3 15 -1 15 4 0 6 -7 10 -15 10 -8 0
-15 -2 -15 -4z"/>
<path d="M6310 3551 c0 -10 19 -25 25 -20 1 2 -3 10 -11 17 -8 7 -14 8 -14 3z"/>
<path d="M4608 3523 c7 -3 16 -2 19 1 4 3 -2 6 -13 5 -11 0 -14 -3 -6 -6z"/>
<path d="M6351 3504 c0 -11 3 -14 6 -6 3 7 2 16 -1 19 -3 4 -6 -2 -5 -13z"/>
<path d="M4550 3490 c0 -5 5 -10 11 -10 5 0 7 5 4 10 -3 6 -8 10 -11 10 -2 0
-4 -4 -4 -10z"/>
<path d="M6331 3474 c0 -11 3 -14 6 -6 3 7 2 16 -1 19 -3 4 -6 -2 -5 -13z"/>
<path d="M6455 3480 c-3 -6 1 -7 9 -4 18 7 21 14 7 14 -6 0 -13 -4 -16 -10z"/>
<path d="M6450 3429 c-6 -11 -10 -25 -8 -30 2 -5 8 4 15 21 13 34 9 40 -7 9z"/>
<path d="M6603 3365 c0 -27 2 -38 4 -22 2 15 2 37 0 50 -2 12 -4 0 -4 -28z"/>
<path d="M7105 3381 c-3 -5 -2 -12 3 -15 5 -3 9 1 9 9 0 17 -3 19 -12 6z"/>
<path d="M4491 3342 c-1 -25 19 -26 27 -2 3 7 0 10 -6 6 -6 -3 -13 0 -15 6 -3
7 -6 3 -6 -10z"/>
<path d="M6365 3330 c-3 -5 -1 -10 4 -10 6 0 11 5 11 10 0 6 -2 10 -4 10 -3 0
-8 -4 -11 -10z"/>
<path d="M4537 3283 c-10 -10 -8 -55 2 -49 5 3 11 17 13 31 5 24 -2 32 -15 18z"/>
<path d="M4586 3281 c-4 -7 -5 -15 -2 -18 9 -9 19 4 14 18 -4 11 -6 11 -12 0z"/>
<path d="M6604 3180 c0 -58 1 -81 3 -52 2 28 2 76 0 105 -2 28 -3 5 -3 -53z"/>
<path d="M6995 3213 c-16 -17 -34 -32 -39 -32 -5 -1 -17 -7 -25 -15 -44 -39
-122 -67 -206 -73 -47 -3 -85 -10 -85 -14 0 -5 11 -9 25 -9 15 0 25 -5 24 -12
-3 -24 1 -38 11 -38 6 0 10 9 10 20 0 25 22 36 88 45 28 4 52 11 52 16 0 4 7
6 15 3 9 -4 15 0 15 9 0 8 9 17 20 20 15 4 20 0 21 -16 0 -21 1 -21 8 -2 5 11
5 22 1 25 -4 3 -1 12 8 20 14 13 15 12 9 -3 -3 -9 -3 -17 2 -17 4 0 7 -12 5
-27 -3 -21 -1 -19 6 7 14 48 32 80 43 80 5 0 2 -11 -7 -25 -18 -28 -13 -33 11
-10 9 9 13 25 10 38 -6 21 -6 21 8 3 13 -17 13 -23 0 -43 -9 -13 -12 -23 -7
-23 15 0 33 51 23 64 -5 6 -10 18 -12 26 -3 11 -12 7 -34 -17z"/>
<path d="M4568 3223 c6 -2 18 -2 25 0 6 3 1 5 -13 5 -14 0 -19 -2 -12 -5z"/>
<path d="M7093 3160 c0 -25 2 -35 4 -22 2 12 2 32 0 45 -2 12 -4 2 -4 -23z"/>
<path d="M7140 3190 c0 -12 17 -12 45 0 17 7 15 9 -12 9 -18 1 -33 -3 -33 -9z"/>
<path d="M4613 3173 c9 -2 23 -2 30 0 6 3 -1 5 -18 5 -16 0 -22 -2 -12 -5z"/>
<path d="M7059 3170 c-1 -8 -1 -19 0 -24 4 -23 -11 -44 -29 -39 -11 3 -20 0
-20 -6 0 -6 6 -11 14 -11 8 0 17 -6 19 -12 3 -8 6 -6 6 5 1 9 5 17 10 17 12 0
21 63 10 75 -6 5 -9 3 -10 -5z"/>
<path d="M7120 3164 c0 -8 5 -12 10 -9 6 4 8 11 5 16 -9 14 -15 11 -15 -7z"/>
<path d="M7160 3150 c-9 -6 -10 -10 -3 -10 6 0 15 5 18 10 8 12 4 12 -15 0z"/>
<path d="M4515 3119 c-4 -6 -4 -13 -1 -16 3 -4 6 0 6 8 0 11 2 11 10 -1 7 -12
10 -12 10 -1 0 7 6 11 13 8 8 -3 20 -1 28 4 10 6 3 9 -23 9 -20 0 -40 -5 -43
-11z"/>
<path d="M4601 3094 c0 -11 3 -14 6 -6 3 7 2 16 -1 19 -3 4 -6 -2 -5 -13z"/>
<path d="M4507 3083 c-14 -13 -7 -43 11 -43 14 0 14 2 3 9 -8 5 -11 16 -8 25
7 17 5 20 -6 9z"/>
<path d="M4538 3065 c2 -14 6 -25 8 -25 2 0 4 11 4 25 0 14 -4 25 -9 25 -4 0
-6 -11 -3 -25z"/>
<path d="M6620 3059 c0 -20 5 -22 32 -11 15 6 14 9 -7 19 -22 10 -25 9 -25 -8z"/>
<path d="M6796 3055 c17 -13 15 -13 -19 -4 -22 6 -41 8 -45 5 -3 -3 3 -6 14
-6 18 -1 18 -1 2 -14 -10 -7 -15 -16 -11 -19 3 -4 12 1 20 11 12 15 13 15 8
-8 -3 -14 -1 -32 5 -40 9 -13 11 -13 20 0 6 8 8 25 5 37 -4 18 -1 20 18 15 22
-5 22 -5 3 16 -11 12 -24 22 -29 22 -6 0 -2 -7 9 -15z m-6 -50 c0 -8 -4 -15
-10 -15 -5 0 -10 7 -10 15 0 8 5 15 10 15 6 0 10 -7 10 -15z"/>
<path d="M4573 3048 c2 -7 12 -12 21 -12 9 1 16 -4 16 -11 0 -14 -22 -25 -63
-30 -15 -2 -37 -11 -50 -20 -22 -16 -22 -16 8 -10 17 4 35 8 42 10 7 2 15 -1
19 -7 5 -7 2 -8 -6 -3 -9 5 -11 4 -6 -3 11 -19 24 -14 29 11 l4 22 2 -22 c2
-32 21 -29 21 3 0 21 4 25 20 21 13 -3 20 0 20 9 0 8 -6 11 -15 8 -10 -4 -15
0 -15 11 0 10 5 14 13 9 8 -5 9 -4 2 3 -17 17 -68 26 -62 11z"/>
<path d="M4480 3018 c0 -5 20 -8 45 -8 25 0 45 4 45 9 0 5 -20 9 -45 8 -25 -1
-45 -5 -45 -9z"/>
<path d="M6880 3026 c0 -9 30 -14 35 -6 4 6 -3 10 -14 10 -12 0 -21 -2 -21 -4z"/>
<path d="M6815 3010 c-3 -5 1 -10 10 -10 9 0 13 5 10 10 -3 6 -8 10 -10 10 -2
0 -7 -4 -10 -10z"/>
<path d="M4468 2993 c-10 -2 -18 -9 -18 -14 0 -6 8 -5 20 1 11 6 20 13 20 15
0 3 -1 4 -2 4 -2 -1 -11 -3 -20 -6z"/>
<path d="M6732 2983 c-11 -19 -10 -22 3 -17 9 4 15 3 14 -2 -5 -31 2 -45 21
-39 16 5 20 2 20 -15 0 -12 5 -18 10 -15 13 8 -6 45 -24 45 -7 0 -17 15 -23
33 -9 31 -9 32 -21 10z"/>
<path d="M4361 2974 c0 -11 3 -14 6 -6 3 7 2 16 -1 19 -3 4 -6 -2 -5 -13z"/>
<path d="M6938 2983 c7 -3 16 -2 19 1 4 3 -2 6 -13 5 -11 0 -14 -3 -6 -6z"/>
<path d="M4630 2965 c10 -12 10 -15 0 -15 -8 0 -11 -3 -7 -6 3 -3 10 -3 16 0
12 8 3 36 -11 36 -6 0 -5 -6 2 -15z"/>
<path d="M4381 2944 c0 -11 3 -14 6 -6 3 7 2 16 -1 19 -3 4 -6 -2 -5 -13z"/>
<path d="M4512 2952 c-17 -11 -4 -42 17 -42 12 0 13 2 3 8 -7 5 -10 16 -6 25
7 19 5 20 -14 9z"/>
<path d="M6715 2940 c3 -5 8 -10 11 -10 2 0 4 5 4 10 0 6 -5 10 -11 10 -5 0
-7 -4 -4 -10z"/>
<path d="M4550 2930 c0 -6 11 -8 28 -4 39 10 40 14 4 14 -18 0 -32 -5 -32 -10z"/>
<path d="M4353 2875 c0 -33 2 -45 4 -27 2 18 2 45 0 60 -2 15 -4 0 -4 -33z"/>
<path d="M4555 2900 c-3 -6 1 -7 9 -4 9 3 16 1 16 -5 0 -6 4 -11 10 -11 5 0 7
7 4 15 -7 17 -30 20 -39 5z"/>
<path d="M6726 2895 c4 -8 11 -15 16 -15 6 0 5 6 -2 15 -7 8 -14 15 -16 15 -2
0 -1 -7 2 -15z"/>
<path d="M6760 2900 c0 -5 5 -10 11 -10 5 0 7 5 4 10 -3 6 -8 10 -11 10 -2 0
-4 -4 -4 -10z"/>
<path d="M4540 2838 c0 -4 4 -8 9 -8 6 0 12 4 15 8 3 5 -1 9 -9 9 -8 0 -15 -4
-15 -9z"/>
<path d="M4366 2813 c-6 -14 -5 -15 5 -6 7 7 10 15 7 18 -3 3 -9 -2 -12 -12z"/>
<path d="M4508 2813 c7 -3 16 -2 19 1 4 3 -2 6 -13 5 -11 0 -14 -3 -6 -6z"/>
<path d="M6196 2797 c3 -10 9 -15 12 -12 3 3 0 11 -7 18 -10 9 -11 8 -5 -6z"/>
<path d="M6229 2744 c28 -42 47 -58 56 -44 4 6 2 9 -4 8 -5 -2 -24 13 -41 32
-30 33 -30 33 -11 4z"/>
<path d="M4474 2705 c1 -8 5 -18 9 -21 14 -14 7 -26 -10 -19 -12 4 -14 3 -8
-3 6 -5 21 -13 35 -17 17 -4 21 -3 11 3 -7 5 -10 15 -7 21 4 6 0 14 -8 17 -9
3 -14 10 -11 14 3 5 1 11 -4 14 -5 4 -8 -1 -7 -9z"/>
<path d="M4437 2696 c-3 -8 -2 -18 3 -21 13 -8 24 15 12 27 -6 6 -11 4 -15 -6z"/>
<path d="M6295 2680 c3 -5 11 -10 16 -10 6 0 7 5 4 10 -3 6 -11 10 -16 10 -6
0 -7 -4 -4 -10z"/>
<path d="M4625 2670 c27 -12 43 -12 25 0 -8 5 -22 9 -30 9 -10 0 -8 -3 5 -9z"/>
<path d="M4600 2650 c0 -5 -15 -11 -32 -11 -31 -2 -31 -2 -6 -6 15 -2 38 3 50
11 18 13 19 16 5 16 -9 0 -17 -4 -17 -10z"/>
<path d="M6368 2653 c6 -2 18 -2 25 0 6 3 1 5 -13 5 -14 0 -19 -2 -12 -5z"/>
<path d="M2094 2300 c-58 -23 -70 -92 -25 -142 23 -26 36 -32 66 -31 41 1 89
39 99 78 17 68 -67 125 -140 95z"/>
<path d="M5215 2303 c-1986 -2 -2676 -6 -2692 -14 -12 -7 -27 -25 -34 -40 -15
-37 2 -82 37 -98 18 -8 636 -11 2332 -11 1269 0 2488 0 2708 0 l402 0 26 31
c28 33 32 59 15 91 -13 23 -69 49 -101 46 -13 -2 -1224 -4 -2693 -5z"/>
<path d="M8311 2284 c-45 -37 -43 -82 4 -123 55 -48 119 -40 150 19 22 42 19
58 -19 96 -43 43 -90 46 -135 8z"/>
<path d="M8826 2289 c-21 -16 -26 -29 -26 -64 0 -36 5 -48 31 -69 49 -42 105
-32 134 24 22 43 19 68 -14 101 -36 36 -86 39 -125 8z"/>
<path d="M1525 2275 c-48 -47 -21 -135 47 -151 38 -9 98 49 98 95 0 45 -38 81
-85 81 -25 0 -44 -8 -60 -25z"/>
</g>
</svg>
